<svg t="1722767624963" class="icon" viewBox="0 0 1024 1024" version="1.1" xmlns="http://www.w3.org/2000/svg" p-id="1571" width="16" height="16"><path d="M210.624 45.248a64 64 0 0 1 84.48-5.312l6.016 5.312 101.504 101.504a64 64 0 0 1-37.76 108.8L357.376 256h-37.504L320 320a64 64 0 0 1-127.552 7.488L192 320.064l-0.128-64.128L154.368 256a64 64 0 0 1-38.912-13.184l-6.336-5.568a64 64 0 0 1-5.312-84.48l5.312-6.016L210.624 45.248zM256 640a64 64 0 0 1 63.552 56.576l0.448 7.488-0.128 63.936h37.504a64 64 0 0 1 45.248 109.248l-101.504 101.504a64 64 0 0 1-90.496 0l-101.504-101.504A64 64 0 0 1 154.368 768h37.504L192 704a64 64 0 0 1 64-64zM722.624 45.248a64 64 0 0 1 84.48-5.312l6.016 5.312 101.504 101.504a64 64 0 0 1-37.76 108.8L869.376 256h-37.504L832 320a64 64 0 0 1-127.552 7.488L704 320.064l-0.128-64.128-37.504 0.064a64 64 0 0 1-38.912-13.184l-6.336-5.568a64 64 0 0 1-5.312-84.48l5.312-6.016L722.624 45.248zM768 640a64 64 0 0 1 63.552 56.576l0.448 7.488-0.128 63.936h37.504a64 64 0 0 1 45.248 109.248l-101.504 101.504a64 64 0 0 1-90.496 0l-101.504-101.504A64 64 0 0 1 666.368 768h37.504L704 704a64 64 0 0 1 64-64zM832 448a64 64 0 0 1 7.488 127.552L832 576H192a64 64 0 0 1-7.488-127.552L192 448h640z" fill="#555666" p-id="1572"></path></svg>